<svg xmlns="http://www.w3.org/2000/svg" fill="#000000" class="bi bi-repeat" viewBox="0 0 16 16" id="Repeat--Streamline-Bootstrap" height="16" width="16">
  <desc>
    Repeat Streamline Icon: https://streamlinehq.com
  </desc>
  <path d="M11 5.466V4H5a4 4 0 0 0 -3.584 5.777 0.5 0.5 0 1 1 -0.896 0.446A5 5 0 0 1 5 3h6V1.534a0.25 0.25 0 0 1 0.41 -0.192l2.36 1.966c0.12 0.1 0.12 0.284 0 0.384l-2.36 1.966a0.25 0.25 0 0 1 -0.41 -0.192m3.81 0.086a0.5 0.5 0 0 1 0.67 0.225A5 5 0 0 1 11 13H5v1.466a0.25 0.25 0 0 1 -0.41 0.192l-2.36 -1.966a0.25 0.25 0 0 1 0 -0.384l2.36 -1.966a0.25 0.25 0 0 1 0.41 0.192V12h6a4 4 0 0 0 3.585 -5.777 0.5 0.5 0 0 1 0.225 -0.67Z" stroke-width="1"></path>
</svg>